<svg id="Layer_1" data-name="Layer 1" xmlns="http://www.w3.org/2000/svg" viewBox="0 0 1603.45 989.5"><defs><style>.cls-1{fill:#fff;}.cls-1,.cls-2,.cls-3,.cls-4,.cls-5{stroke:#000;stroke-miterlimit:10;}.cls-3{fill:#ccc;}.cls-4{fill:#4d4d4d;}.cls-5{fill:#333;}</style></defs><rect class="cls-1" x="2" y="45.5" width="1600" height="900"/><path class="cls-2" d="M1738,92V990H140V92H1738m1-1H139V991H1739V91Z" transform="translate(-137 -45.5)"/><rect class="cls-1" x="431" y="268.5" width="800" height="450"/><path class="cls-2" d="M1367,315V763H569V315h798m1-1H568V764h800V314Z" transform="translate(-137 -45.5)"/><rect class="cls-2" x="353.5" y="-38.75" width="1" height="483.5" transform="translate(-126.39 377.97) rotate(-62.53)"/><rect class="cls-2" x="1337.57" y="202.5" width="432.86" height="1" transform="translate(-19.36 784.4) rotate(-31.02)"/><rect class="cls-2" x="111.32" y="877.5" width="485.36" height="1" transform="translate(-506.33 221.76) rotate(-27.87)"/><rect class="cls-2" x="1553.5" y="660.53" width="1" height="434.94" transform="translate(-142.99 1699.82) rotate(-58.54)"/><path class="cls-3" d="M138.5,47v986.5H1114V47ZM826.39,848.59H412.27V233.91H826.39Z" transform="translate(-137 -45.5)"/><path class="cls-2" d="M1114.5,1034H138V46.5h976.5ZM139,1033h974.5V47.5H139ZM826.89,849.09H411.77V233.41H826.89Zm-414.12-1H825.89V234.41H412.77Z" transform="translate(-137 -45.5)"/><path class="cls-3" d="M1114.5,1034H138V46.5h976.5ZM139,1033h974.5V47.5H139ZM826.89,849.09H411.77V233.41H826.89Zm-414.12-1H825.89V234.41H412.77Z" transform="translate(-137 -45.5)"/><path class="cls-2" d="M1115,1034.5H137.5V46H1115Zm-976.5-1H1114v0Zm1-1H1113V48H139.5ZM827.39,849.59H411.27V232.91H827.39Zm-415.12-1H826.39v0Zm1-1H825.39V234.91H413.27Z" transform="translate(-137 -45.5)"/><polyline class="cls-4" points="690.5 188 690.5 803 846.5 719 846.5 269"/><polygon class="cls-2" points="690 803.84 690 188 691 188 691 802.16 846 718.7 846 269 847 269 847 719.3 846.74 719.44 690 803.84"/><path class="cls-5" d="M827.24,233.62l156,81Z" transform="translate(-137 -45.5)"/><rect class="cls-2" x="904.74" y="186.23" width="1" height="175.78" transform="translate(107.81 905.69) rotate(-62.56)"/></svg>